<?xml version="1.0" encoding="utf-8" ?><svg xmlns="http://www.w3.org/2000/svg" xmlns:xlink="http://www.w3.org/1999/xlink" width="1024" height="1024" viewBox="0 0 1024 1024"><path  d="M0 0L1024 0L1024 1024L0 1024L0 0Z"/><path fill="#001F3F" d="M703.177 20.7058C717.45 20.4416 730.431 25.5294 740.473 35.7986C745.077 40.5065 752.317 49.9573 753.64 56.4438C762.257 62.2673 765.703 66.3263 772.567 74.0464C810.058 45.3467 860.73 99.1955 825.974 140.255C834.89 143.259 843.872 146.49 852.161 151.202C889.159 172.231 917.529 206.061 938.656 242.462C949.986 261.656 958.302 282.369 970.348 301.159C973.943 306.767 972.327 305.625 977.641 309.331C979.242 312.649 978.711 317.539 980.007 320.334C988.66 338.994 995.472 335.377 976.441 348.809C977.53 383.454 961.451 410.505 946.693 440.784C937.668 459.3 925.677 489.532 925.278 510.696C925.115 519.304 933.072 538.928 936.309 548.051C939.896 557.955 943.165 567.972 946.11 578.086C952.227 599.867 956.791 622.045 961.865 644.066C962.812 646.338 962.047 647.622 964.493 648.732C968.332 650.474 971.265 660.749 972.428 664.331C973.557 667.807 970.682 671.469 968.943 673.875C971.342 680.539 973.032 685.398 976.542 691.524C980.744 692.147 983.364 692.945 986.176 696.323C989.47 700.28 1000.38 727.663 999.464 732.017C998.703 735.614 995.492 738.384 992.613 740.384C972.099 754.643 937.393 762.227 912.814 757.706C908.713 756.951 904.201 755.582 901.839 751.873C898.661 746.881 899.754 741.172 900.791 735.751C907.287 729.412 915.788 727.924 923.692 724.128C924.972 723.513 928.251 721.015 929.493 720.073C929.416 714.976 929.765 710.408 930.841 705.565C931.771 701.38 932.4 697.164 936.45 695.15C937.262 694.746 937.066 694.726 937.434 693.813L936.685 692.784C933.936 693.698 931.745 694.354 928.934 695.08C924.296 689.891 918.045 681.724 915.756 674.946C915.424 673.963 915.581 671.118 915.636 669.977C912.28 664.728 908.13 659.276 904.597 653.998C898.933 645.377 893.456 636.636 888.168 627.78C879.853 613.838 872.896 599.364 864.908 586.039C860.563 606.094 856.36 620.551 851.082 640.196C857.412 645.047 852.973 658.244 850.704 664.603C849.114 665.845 847.191 667.032 846.393 668.808C846.811 671.806 848.336 672.45 849.455 674.393C854.579 683.297 854.836 710.176 853.234 719.998C840.938 727.612 820.259 724.458 805.832 723.452C807.378 729.756 812.355 739.307 809.293 745.262C808.059 747.662 804.756 748.419 802.256 749.039C788.76 752.387 775.174 755.429 761.629 758.591L668.831 779.872L393.492 844.886C400.989 858.51 410.005 862.645 420.717 873.163C429.389 881.678 435.567 887.744 427.783 899.491C434.912 901.388 491.942 918.404 493.985 920.264C494.865 921.065 494.723 921.519 494.625 922.576C491.656 925.847 476.951 931.324 472.146 933.129C476.613 940.399 490.343 959.877 492.743 966.344C487.284 969.62 472.376 975.805 465.793 978.76C452.494 984.788 439.288 991.022 426.182 997.458C418.325 995.987 409.286 993.15 401.477 990.934L371.773 982.768C365.622 981.052 359.452 979.408 353.263 977.835C349.832 976.997 342.083 976.205 340.694 973.107C341.357 968.119 354.375 946.9 357.863 941.279C353.271 940.503 340.484 938.987 338.384 935.133L338.766 933.852C341.627 930.849 346.961 929.693 351.031 928.433C351.437 923.14 351.892 922.781 354.697 918.404C347.062 906.863 346.25 900.296 345.369 887.084C342.72 884.658 339.551 882.172 336.622 880.09C319.763 868.105 304.182 855.423 288.703 841.731C284.678 849.838 280.604 859.461 276.869 867.798C270.914 880.824 265.123 893.925 259.496 907.096C252.672 923.144 247.629 928.717 248.075 946.989C248.17 950.903 244.689 957.126 245.186 963.414C247.205 966.565 247 966.464 245.91 969.989L245.679 970.72C257.017 975.258 287.974 984.348 277.356 1001.94C274.483 1006.7 264.785 1007.65 259.571 1008.6C258.804 1008.71 258.036 1008.82 257.267 1008.91C235.073 1011.71 215.873 1011.16 194.685 1004.29C184.181 1000.89 171.526 1001.49 170.212 986.928C153.984 984.941 133.499 978.395 117.552 974.206C114.277 973.346 107.011 969.553 104.297 969.306C97.5705 968.694 89.4506 968.64 82.6269 968.354C72.1757 974.897 33.0276 1004.12 22.5459 985.967C9.19805 962.851 55.9833 936.11 72.5205 926.217C63.9547 925.29 55.3295 923.427 48.2241 918.309C23.5098 900.509 22.0619 865.45 30.7189 839.036C27.5503 837.055 26.0365 835.249 27.1303 831.273C27.967 828.078 31.4937 824.451 32.3375 821.446C39.6234 795.504 53.3865 772.577 68.6082 750.651C92.4835 716.261 121.317 685.832 157.073 663.719L110.878 455.797L97.3388 395.045C95.5942 387.194 91.2718 369.732 90.7694 362.676C91.9275 359.556 92.8793 357.151 96.3516 356.19C108.226 352.905 120.452 350.779 132.491 348.06C158.764 342.139 185.001 336.057 211.199 329.813C207.814 316.422 183.233 216.531 184.359 210.58C184.668 208.947 185.865 207.11 187.3 206.217C190.876 203.989 199.245 207.286 203.11 207.969C225.947 212.006 245.533 210.267 264.804 196.519C270.205 192.666 278.248 186.475 279.393 179.597C278.052 174.71 264.418 167.272 259.881 163.511C235.938 143.659 237.471 115.977 257.142 93.2073C267.258 81.4567 281.659 74.2469 297.128 73.1881C335.158 70.5091 372.212 107.141 352.986 144.351C350.327 149.497 343.028 159.382 343.404 164.714C344.768 167.528 348.953 169.186 351.966 170.255C376.425 178.931 402.867 172.721 423.044 157.062C426.402 154.457 433.766 145.698 436.841 144.651C438.836 143.981 441.023 144.205 442.841 145.265C446.478 147.411 451.622 175.148 452.868 180.362L466.353 236.168C468.987 247.168 471.363 258.583 474.377 269.442C490.234 264.95 506.854 261.113 522.886 257.076L604.419 236.632L649.669 225.26C656.681 223.485 663.754 221.166 670.865 219.89C672.298 219.633 673.889 219.821 675.159 220.588C677.694 222.12 689.235 267.185 690.842 273.005C704.921 273.305 720.213 273.523 734.067 271.13C743.773 261.668 752.037 252.315 758.411 240.063C766.412 224.682 759.242 190.937 754.336 175.264C747.592 170.619 744.53 168.454 738.808 162.541C734.222 170.611 722.793 182.403 714.891 186.975C706.812 182.687 700.128 178.299 693.385 172.147C676.033 177.05 677.575 171.681 677.934 157.269C672.602 152.088 664.027 144 658.545 139.42C649.353 150.902 636.627 168.521 621.141 170.869C618.462 171.275 615.841 170.902 613.687 169.158C611.516 167.401 610.094 164.789 609.953 161.993C609.327 149.6 635.466 122.234 643.997 112.708C640.699 104.636 636.752 99.3332 634.981 89.9927C631.231 70.2181 639.568 54.6682 654.054 41.7157C656.839 38.6755 665.137 35.8278 665.62 31.6316C666.205 26.5559 669.716 24.4953 674.176 23.1074C676.357 22.1128 679.602 25.5258 681.283 25.0325C689.123 22.7313 694.944 21.1439 703.177 20.7058Z"/><path fill="#033870" d="M467.514 352.145C465.352 347.562 461.939 343.457 459.774 339.023C453.914 327.023 452.312 312.673 456.702 299.939C458.082 295.869 463.259 285.48 466.841 283.784C472.31 281.196 481.367 279.462 487.495 277.965L515.23 271.143C546.782 263.39 578.286 255.443 609.74 247.303C626.379 243.168 650.985 237.926 666.727 232.905C675.759 260.879 685.044 294.013 692.917 322.554L675.378 325.478C660.649 318.644 637.1 312.921 623.501 324.98C618.7 321.588 611.547 319.71 607.981 325.963C601.444 337.425 606.5 351.758 615.727 360.219C627.469 363.902 628.997 360.591 639.182 359.007C642.736 358.454 651.116 360.827 657.87 359.604C666.074 358.119 669.515 355.382 676.025 353.33C679.361 352.278 694.316 350.782 698.739 350.302L716.825 416.486C718.807 423.541 726.12 447.359 726.465 453.543C724.051 455.622 707.581 445.914 703.981 444.395C683.305 435.67 657.993 439.918 640.222 453.155C626.793 462.966 617.89 477.781 615.531 494.244C611.114 525.924 628.511 553.464 659.159 562.457C687.362 570.733 718.789 556.504 732.589 530.786C734.755 526.665 736.674 522.484 738.573 518.241L779.765 671.837C784.994 690.796 789.852 709.835 795.83 728.569C796.702 731.302 797.756 734.347 798.444 737.094C786.874 740.988 765.765 745.715 753.318 748.675L682.327 765.22C676.682 763.408 666.069 760.257 662.983 754.827C660.64 750.703 668.871 740.596 671.012 736.987C685.861 712.021 673.446 681.417 647.911 669.539C631.47 661.891 619.444 662.065 602.288 667.525C576.409 675.761 556.905 706.053 566.502 733.001C569.193 740.594 573.797 747.364 579.869 752.656C585.455 757.599 600.368 761.845 595.407 770.971C584.495 791.048 562.155 792.682 541.905 797.379C523.821 801.621 505.76 805.962 487.724 810.402C478.427 812.677 467.777 814.833 458.759 817.595L431.951 697.76L425.566 669.067C424.728 665.205 422.847 657.51 422.834 653.89C417.552 650.341 413.561 647.519 408.57 643.58C390.173 627.381 384.027 608.835 392.904 585.834C394.857 582.356 396.125 580.402 398.449 577.151C397.214 576.014 392.224 573.534 390.551 572.749C380.656 568.289 373.684 561.247 369.625 551.072C358.374 522.867 380.073 491.738 405.951 481.342C402.851 478.07 400.904 475.23 398.467 471.487C396.465 468.195 394.772 465.117 393.25 461.557C386.51 445.998 386.27 428.389 392.585 412.652C404.42 383.508 429.104 367.732 456.784 356.041C459.651 354.769 464.433 353.239 467.514 352.145Z"/><path fill="white" d="M467.514 352.145C501.486 341.121 540.021 335.288 573.225 352.529C600.025 366.445 622.996 400.006 607.183 430.816C588.806 466.619 529.29 462.135 534.853 415.813C535.712 408.659 542.499 401.055 536.576 393.201C534.942 390.724 532.923 388.398 530.419 386.714C527.242 388.405 522.687 389.247 519.138 389.961C505.671 392.67 492.619 392.659 479.376 388.794C478.015 388.397 477.583 388.123 476.624 387.12C453.248 394.328 423.937 418.927 446.059 444.315C448.15 446.412 449.814 448.214 452.219 449.971C505.426 485.581 609.751 482.706 627.656 560.337C631.664 577.714 626.227 598.792 616.079 613.35C575.175 666.747 480.289 684.764 422.834 653.89C417.552 650.341 413.561 647.519 408.57 643.58C390.173 627.381 384.027 608.835 392.904 585.834C394.857 582.356 396.125 580.402 398.449 577.151C397.214 576.014 392.224 573.534 390.551 572.749C380.656 568.289 373.684 561.247 369.625 551.072C358.374 522.867 380.073 491.738 405.951 481.342C402.851 478.07 400.904 475.23 398.467 471.487C396.465 468.195 394.772 465.117 393.25 461.557C386.51 445.998 386.27 428.389 392.585 412.652C404.42 383.508 429.104 367.732 456.784 356.041C459.651 354.769 464.433 353.239 467.514 352.145Z"/><path fill="#033870" d="M476.238 519.332C479.475 520.438 482.72 521.517 485.975 522.57L512.837 530.709C534.117 537.17 559.301 544.408 571.269 565.303C574.809 571.483 576.088 580.534 574.032 587.37C570.267 599.887 558.935 608.542 547.701 614.337C528.948 624.01 503.931 631.445 482.947 625.26C476.463 623.348 469.362 618.537 466.731 612.413C460.64 598.234 468.002 588.862 458.436 574.393C455.314 569.973 453.91 568.696 449.476 565.604C451.766 562.674 455.954 559.883 458.725 556.885C470.094 544.585 472.85 534.975 476.238 519.332Z"/><path fill="#001F3F" d="M476.238 519.332C479.475 520.438 482.72 521.517 485.975 522.57C486.069 541.504 472.276 562.322 458.436 574.393C455.314 569.973 453.91 568.696 449.476 565.604C451.766 562.674 455.954 559.883 458.725 556.885C470.094 544.585 472.85 534.975 476.238 519.332Z"/><path fill="#033870" d="M405.951 481.342C424.489 500.374 451.276 511.209 476.238 519.332C472.85 534.975 470.094 544.585 458.725 556.885C455.954 559.883 451.766 562.674 449.476 565.604C429.582 554.853 412.916 561.171 398.449 577.151C397.214 576.014 392.224 573.534 390.551 572.749C380.656 568.289 373.684 561.247 369.625 551.072C358.374 522.867 380.073 491.738 405.951 481.342Z"/><path fill="#001F3F" d="M476.624 387.12C490.574 380.7 516.777 378.015 530.419 386.714C527.242 388.405 522.687 389.247 519.138 389.961C505.671 392.67 492.619 392.659 479.376 388.794C478.015 388.397 477.583 388.123 476.624 387.12Z"/><path fill="#0080FF" d="M519.81 352.21C541.253 351.079 563.458 356.44 580.604 370.108C598.802 384.773 610.416 411.663 593.832 432.011C583.048 446.337 550.268 450.137 546.042 428.458C542.546 410.524 559.977 396.281 539.419 380.519C528.568 372.2 514.472 369.026 500.834 370.469C472.609 373.454 423.551 393.971 427.485 429.317C428.302 436.975 431.52 444.178 436.68 449.895C459.238 475.051 519.757 487.071 551.074 499.771C565.707 505.117 578.127 511.962 590.443 521.4C620.346 544.315 628.168 583.411 602.261 612.973C577.147 641.631 536.319 654.73 499.123 657.923C471.857 660.366 441.43 655.299 419.228 638.211C401.433 624.667 392.756 601.282 408.121 582.312C416.931 570.983 433.826 566.666 445.64 576.154C454.308 583.357 451.877 592.807 452.545 602.367C453.651 618.212 464.871 630.732 480.05 635.593C515.527 646.953 599.032 617.436 584.705 569.283C573.056 530.132 516.8 522.03 483.511 510.936C461.711 503.672 439.362 495.722 421.339 480.888C393.989 459.514 392.136 422.325 414.659 396.552C435.135 373.122 464.026 362.542 493.601 355.705C502.252 353.705 510.986 353.017 519.81 352.21Z"/><path fill="#001F3F" d="M446.059 444.315C447.589 443.319 448.021 442.872 449.855 442.666C452.897 443.839 452.352 447.103 452.219 449.971C449.814 448.214 448.15 446.412 446.059 444.315Z"/><path fill="#0080FF" d="M319.823 318.442L449.433 287.6C434.831 312.485 441.33 333.856 456.784 356.041C429.104 367.732 404.42 383.508 392.585 412.652C386.27 428.389 386.51 445.998 393.25 461.557C394.772 465.117 396.465 468.195 398.467 471.487C400.904 475.23 402.851 478.07 405.951 481.342C380.073 491.738 358.374 522.867 369.625 551.072C373.684 561.247 380.656 568.289 390.551 572.749C392.224 573.534 397.214 576.014 398.449 577.151C396.125 580.402 394.857 582.356 392.904 585.834C384.027 608.835 390.173 627.381 408.57 643.58C407.24 645.656 406.037 651.76 404.713 654.694C382.53 703.834 328.959 718.545 296.209 670.534C311.283 662.369 312.634 659.401 317.046 644.168C317.425 642.861 326.848 633.894 328.816 631.781C336.161 639.892 358.843 662.987 369.124 655.391C379.73 647.555 351.238 610.116 345.767 603.193C348.093 595.799 351.354 588.51 352.985 580.908C354.611 573.331 351.218 566.222 347 560.067C334.359 541.622 313.573 528.882 291.722 524.808C284.163 523.399 264.427 521.474 258.392 526.133C251.024 531.822 232.667 555.413 231.078 564.1C212.072 577.147 195.74 593.24 195.822 618.419C195.858 629.459 200.124 636.573 207.894 644.142C206.179 645.497 204.832 646.919 203.291 648.459C188.909 648.348 180.622 651.28 167.88 657.722C165.824 642.967 161.832 627.46 158.53 612.86L145.204 552.348C137.901 518.586 130.417 484.864 122.753 451.183C116.745 423.774 110.768 394.688 104.091 367.527L209.45 343.336C222.201 340.429 234.446 337.979 247.223 334.842C245.363 340.344 242.663 345.13 240.134 350.367C235.081 360.833 232.751 371.822 234.12 383.432C235.988 400.359 244.557 415.833 257.914 426.397C271.014 436.72 288.416 442.253 305.08 440.119C321.342 438.029 336.093 429.525 346.051 416.5C355.972 403.327 360.252 386.752 357.949 370.422C355.735 353.901 347.573 339.219 334.456 328.991C329.686 325.272 324.892 322.398 320.325 318.839L319.823 318.442Z"/><path fill="#001F3F" d="M398.467 471.487C400.904 475.23 402.851 478.07 405.951 481.342C380.073 491.738 358.374 522.867 369.625 551.072C373.684 561.247 380.656 568.289 390.551 572.749C392.224 573.534 397.214 576.014 398.449 577.151C396.125 580.402 394.857 582.356 392.904 585.834C362.09 577.036 347.519 546.856 357.289 516.936C364.55 494.7 378.253 481.79 398.467 471.487Z"/><path fill="#A1D7FD" d="M198.828 220.199L204.827 221.161C229.295 225.01 251.846 221.683 272.383 206.976C279.57 201.829 291.569 189.855 292.324 180.724C293.615 165.114 270.661 159.128 261.361 147.519C256.215 141.189 253.879 133.031 254.895 124.937C258.117 100.64 283.161 82.6385 307.482 86.1097C320.151 87.9274 331.583 94.6935 339.272 104.925C347.214 115.566 347.592 129.592 340.77 140.843C332.808 153.502 321.498 169.938 340.984 179.069C374.339 194.698 409.167 185.366 436.126 162.691C438.116 174.19 441.923 188.828 444.663 200.308L461.899 271.64C454.259 273.693 446.184 275.641 438.453 277.319C397.371 286.234 356.547 297.312 315.491 306.209C309.473 306.184 252.249 319.506 247.166 322.063C239.21 323.875 231.244 325.645 223.27 327.374C219.741 308.823 214.528 288.465 210.099 269.99C206.209 253.423 202.452 236.826 198.828 220.199Z"/><path fill="#0080FF" d="M821.396 144.38C831.496 148.301 838.487 149.985 848.535 155.567C890.088 178.65 918.705 215.996 940.804 257.238C951.431 277.069 957.766 293.843 971.77 311.705C961.753 324.338 949.105 334.638 934.705 341.888C902.359 358.527 866.16 360.438 831.761 349.27C832.592 337.792 833.602 322.956 831.38 311.715C833.655 306.425 835.742 301.451 837.673 296.047C838.655 293.3 841.006 284.629 842.229 282.822C846.735 276.163 870.519 244.964 869.664 238.51L869.137 238.114C867.825 238.044 864.921 239.503 864.314 240.482C857.937 250.762 851.207 260.688 844.274 270.606C845.903 264.407 852.646 236.815 852.276 231.144C851.025 229.559 851.788 230.204 849.729 229.361C846.772 230.7 845.542 238.575 845.028 241.544C843.275 251.651 840.962 261.537 838.628 271.522C834.385 288.744 830.157 304.031 819.365 318.626C812.548 327.845 806.821 330.692 796.123 334.301C772.572 342.246 747.428 346.437 722.867 349.845C716.276 333.08 716.619 326.433 712.14 311.092C730.882 305.468 749.229 298.6 767.058 290.535C772.225 294.508 776.101 299.693 779.891 304.92C781.765 307.504 783.556 311.438 787.099 310.386C790.458 305.448 781.508 298.756 779.033 294.398C777.109 291.011 772.694 288.62 770.01 285.968C775.312 279.668 793.151 294.879 796.727 290.953C797.183 283.561 778.334 280.346 772.66 279.255C782.65 262.076 786.872 240.108 789.19 220.433C790.496 211.991 790.406 197.737 794.445 190.324C802.847 174.901 826.925 186.504 835.034 196.669C838.161 200.589 841.313 208.561 844.968 210.533C846.744 210.475 845.97 210.773 847.331 209.517C847.705 208.43 847.818 207.34 847.317 206.269C838.02 186.368 818.994 172.8 796.998 179.741C802.095 169.93 806.202 163.524 807.653 152.488C813.16 149.835 816.386 147.851 821.396 144.38Z"/><path fill="white" d="M826.352 318.437C828.618 322.421 826.13 349.679 824.627 355.985C823.763 359.605 821.518 368.948 821.792 372.082C823.617 375.126 828.377 376.559 831.764 377.997C826.195 397.945 820.166 416.78 813.07 436.256C805.308 457.559 797.725 478.73 796.417 501.583C794.792 529.974 795.289 559.277 797.288 587.643C798.227 599.522 799.3 611.39 800.507 623.245C800.825 626.48 802.311 636.112 801.859 638.408C800.667 639.608 800.614 639.575 799.837 641.046C799.576 646.656 802.169 661.042 804.002 666.716C804.388 667.91 806.342 670.315 807.213 671.4C803.073 677.021 800.064 679.279 794.763 683.792C788.43 664.185 782.683 640.559 777.545 620.485L760.622 556.342L753.349 528.993C751.981 523.814 750.555 517.977 748.697 512.953C747.621 510.048 743.927 508.302 741.227 507.179C730.37 504.562 727.869 512.839 724.625 521.052C718.336 536.974 703.716 548.156 687.251 552.152C660.524 558.638 633.975 542.117 627.65 515.363C624.624 502.106 626.987 488.189 634.218 476.674C649.524 452.542 680.332 444.135 705.157 457.458C714.065 462.239 728.813 470.971 735.881 459.071C739.404 453.138 737.102 448.309 735.575 442.175C730.718 424.261 725.393 406.377 720.606 388.44C717.847 378.103 714.604 367.627 712.087 357.27C741.516 352.992 785.834 346.818 812.552 332.914C817.041 330.578 823.049 322.578 826.352 318.437Z"/><path fill="#033870" d="M970.885 352.967C971.96 354.09 971.058 359.455 970.86 361.338C967.57 394.571 948.873 421.289 936.251 451.074C930.464 464.729 917.339 499.494 920.046 513.987C923.329 531.556 933.198 552.781 938.354 570.745C942.034 583.547 945.382 596.441 948.395 609.416C951.598 623.396 954.359 637.503 958.567 651.213C946.741 660.611 935.598 665.411 921.267 669.256C914.231 659.543 906.796 647.493 900.163 637.25C880.569 605.983 853.611 557.349 845.59 521.715C840.523 499.204 843.547 461.544 845.719 438.403C847.286 420.318 849.437 402.288 852.169 384.341C880.887 387.377 894.086 384.991 921.327 376.338C923.502 387.122 929.331 393.1 940.665 388.774C952.247 384.353 961.474 370.321 963.48 358.554C965.944 356.833 968.482 354.81 970.885 352.967Z"/><path fill="#033870" d="M216.211 783.436C225.53 784.727 226.976 786.095 237.972 786.582C248.89 802.085 271.139 824.281 284.952 837.6C279.64 847.305 275.199 858.033 270.853 868.195C265.942 879.424 260.937 890.612 255.837 901.757C251.942 910.364 247.935 919.79 243.334 927.96C241.358 928.05 239.381 928.11 237.403 928.14C223.946 928.271 207.311 922.076 197.701 912.565C202.239 894.795 204.98 872.104 209.268 854.067C215.544 847.191 224.264 840.455 230.646 833.497C231.591 832.467 231.655 831.551 231.57 830.224C230.467 828.817 231.169 829.267 229.347 828.906C225.736 829.668 210.75 844.385 207.086 847.799C197.845 856.543 188.402 865.071 178.765 873.376C146.691 900.755 114.293 928.677 69.2936 920.737C57.6214 918.678 49.4203 914.344 42.6172 904.502C28.7214 884.398 31.3683 862.973 35.1116 840.381C73.0863 853.509 88.1372 847.61 123.623 832.037C156.373 817.665 186.918 804.646 216.211 783.436Z"/><path fill="#0080FF" d="M412.309 667.341C412.928 668.016 412.922 668.03 413.114 668.939C423.765 719.407 436.132 769.594 447.424 819.884C426.868 824.282 406.436 829.24 386.151 834.754C370.871 815.145 358.545 801.662 337.887 787.43C329.926 781.945 318.497 775.077 311.468 769.158C306.407 764.432 301.975 758.979 297.54 753.669C298.859 750.878 299.801 748.737 297.82 745.895C293.008 738.992 287.689 732.409 282.522 725.762C272.599 712.849 262.533 700.046 252.327 687.356C254.292 682.758 256.021 678.328 258.708 674.096C268.529 681.816 273.752 680.342 284.73 676.289C304.948 706.386 338.736 722.055 373.473 705.438C391.887 696.63 402.171 684.657 412.309 667.341Z"/><path fill="#0080FF" d="M247.166 322.063C252.249 319.506 309.473 306.184 315.491 306.209C311.544 308.854 308.44 311.473 307.405 316.44C305.175 327.143 318.741 332.501 325.698 337.651C340.943 348.935 348.4 367.88 345.502 386.506C343.622 399.389 336.651 410.979 326.15 418.677C315.857 426.312 302.935 429.506 290.27 427.545C276.411 425.302 264.013 417.636 255.813 406.24C248.269 395.627 244.876 382.002 247.141 369.131C247.952 364.692 249.315 360.373 251.2 356.273C256.505 344.63 269.556 326.279 247.166 322.063Z"/><path fill="#033870" d="M750.104 60.3209C756.08 62.5308 767.784 76.6887 771.006 82.287C771.869 83.7864 772.268 83.6947 773.535 83.8263C775.6 82.9291 774.972 83.6194 775.994 82.0965C775.591 80.7091 775.39 80.527 775.604 79.1396C782.079 72.0489 795.453 70.3007 803.801 72.815C837.5 82.9655 842.692 129.263 810.056 145.009C793.883 152.812 771.593 160.293 754.899 155.583C742.396 151.811 740.314 143.176 735.984 132.308C738.987 129.255 740.721 127.427 742.082 123.134C743.775 117.916 743.321 112.239 740.82 107.357C736.83 99.7424 727.663 94.9409 719.663 99.4497C713.649 102.839 712.151 110.97 710.355 117.132C701.324 113.22 699.603 115.054 690.505 114.204C685.91 113.775 683.872 111.319 681.389 107.891C701.583 97.991 732.753 75.2621 750.104 60.3209Z"/><path fill="white" d="M252.767 728.512C254.44 729.853 260.438 739.226 262.246 741.693C272.075 755.109 283.454 767.229 293.805 780.177C311.803 803.112 329.008 826.657 345.392 850.771C357.289 868.13 369.321 883.545 378.458 902.675C382.051 910.196 386.456 914.409 388.909 923.009C387.801 926.826 382.074 937.333 379.863 940.988L375.649 939.226C372.648 935.427 378.718 931.428 376.799 926.782C374.708 921.719 368.085 920.628 363.768 918.775C357.309 916.002 355.646 910.419 353.413 904.42C352.512 901.614 349.498 892.169 350.556 889.867C353.21 890.368 355.629 890.864 357.719 888.92C357.988 887.531 357.803 887.514 357.207 886.172L356.175 885.893C354.811 886.946 355.311 886.822 353.787 887.23C340.86 875.791 327.227 867.06 313.779 856.194C296.535 842.261 281.676 827.389 266.668 811.101C259.095 802.882 250.889 794.665 243.94 785.911C247.378 785.103 259.479 782.171 260.709 779.259C260.432 779.033 260.154 778.808 259.876 778.582C251.79 779.151 241.368 782.246 233.332 781.566C223.753 780.756 214.89 776.258 206.574 772.197C229.37 758.458 233.028 740.074 252.767 728.512Z"/><path fill="#033870" d="M617.037 675.168C647.285 671.795 674.936 696.33 663.346 727.925C659.981 737.097 649.148 744.98 651.998 755.946C653.638 762.253 659.428 766.023 664.462 769.204L623.646 778.937C616.616 780.051 606.497 783.001 598.625 784.439C599.616 783.176 600.575 781.888 601.502 780.576C613.611 763.268 605.193 756.009 590.694 746.802C572.133 735.017 570.952 710.59 583.834 693.981C592.302 683.062 603.276 677.066 617.037 675.168Z"/><path fill="#033870" d="M264.477 529.026C277.627 528.48 291.632 528.931 304.329 533.675C321.466 540.079 337.965 552.509 346.225 569.225C350.348 577.567 344.236 590.899 340.968 599.458C337.09 595.794 333.328 594.143 328.663 591.743C316.778 585.591 305.588 581.669 292.698 578.251C289.041 577.281 281.45 575.88 278.317 574.764C264.891 569.983 251.469 565.205 237.988 560.581C244.093 550.778 255.145 535.066 264.477 529.026Z"/><path fill="white" d="M287.175 750.541L287.669 750.624C292.827 754.566 299.108 766.046 305.56 771.216C323.402 785.515 342.184 795.644 358.798 811.651C367.465 820.16 375.37 829.412 382.422 839.3C386.633 845.161 393.098 855.316 397.864 859.967C404.073 866.026 421.656 879.365 425.369 886.545C426.548 888.849 426.717 891.54 425.836 893.973C422.128 904.481 399.141 910.451 396.24 902.548C396.665 901.008 397.516 900.627 398.826 899.612L399.372 899.196C400.112 899.34 400.854 899.47 401.599 899.586C407.656 900.514 410.001 899.514 414.712 896.119C422.506 887.523 411.49 884.2 406.33 878.522C405.595 877.713 404.839 875.151 404.073 873.813C400.806 872.853 400.714 877.348 399.833 877.551C390.622 879.676 386.739 883.577 396.159 895.98L391.818 899.579C384.638 890.045 384.303 881.979 381.717 870.729C379.808 862.428 371.712 860.971 365.079 857.666C360.86 855.564 356.706 853.47 352.533 851.287C350.635 848.298 348.464 845.479 346.433 842.579C332.882 823.232 319.5 803.749 304.705 785.317C299.953 779.373 295.093 773.516 290.129 767.748C287.048 764.162 280.789 757.26 278.53 753.455C281.825 752.129 283.749 751.492 287.175 750.541Z"/><path fill="white" d="M255.175 598.992C266.792 599.096 264.008 608.024 268.31 611.263C270.63 611.855 297.312 603.755 301.625 602.35C309.467 611.091 317.482 618.714 325.771 628.139C322.836 630.546 320.601 633.533 317.995 636.376L317.618 635.996C317.653 634.438 317.886 633.267 317.088 631.985C312.802 630.482 306.927 637.608 308.901 643.049C312.622 645.793 309.927 650.039 308.574 653.857C303.315 664.206 288.312 667.731 278.668 672.698C267.997 678.194 260.177 670.878 254.692 662.173C247.165 650.229 252.883 632.823 256.014 620.425L250.962 618.693C243.694 610.963 245.738 603.268 255.175 598.992Z"/><path fill="#001F3F" d="M296.374 611.666C298.09 611.561 299.445 611.586 301.161 611.719C305.579 612.063 315.652 617.755 314.838 622.915C313.695 624.763 314.178 624.151 312.101 625.29C310.36 623.707 305.741 618.565 304.007 617.613C302.037 616.531 295.03 616.433 292.96 614.445L292.988 613.445C294.091 612.304 294.879 612.183 296.374 611.666Z"/><path fill="#001F3F" d="M297.665 624.995C299.437 625.113 300.028 624.974 301.343 626.15C303.017 630.287 298.819 634.452 295.822 636.828C288.193 636.021 290.988 627.492 297.665 624.995Z"/><path fill="#001F3F" d="M268.339 647.567C272.131 648.145 275.185 653.824 278.604 656.005C279.629 656.659 284.085 659.684 284.469 660.239L283.66 661.627C278.93 661.552 270.669 657.529 268.088 653.348C267.219 651.94 267.926 649.05 268.339 647.567Z"/><path fill="#001F3F" d="M289.525 654.303C296.083 654.631 296.175 658.604 293.46 663.298C292.112 663.619 292.124 663.753 290.881 663.234C290.223 661.837 290.736 657.64 289.525 654.303Z"/><path fill="white" d="M661.922 134.74C664.308 130.609 673.773 112.426 676.011 110.369C678.535 111.654 681.953 117.202 685.055 118.482C690.699 120.812 696.037 118.491 701.694 119.115C704.589 119.435 709.765 122.933 712.981 121.096C715.864 119.448 716.385 114.281 717.567 111.284C718.428 108.741 720.423 104.608 723.301 103.717C734.43 100.274 740.682 113.077 736.994 122.25C735.466 126.049 734.612 127.974 730.782 128.888C727.627 127.207 729.316 121.12 723.26 119.143L722.034 120.114C722.775 124.102 723.031 124.471 725.15 127.971C724.922 130.903 723.888 133.045 726.349 135.047C728.45 135.459 729.884 134.836 731.975 134.264C739.309 160.979 734.162 163.43 714.801 180.864C710.162 178.181 701.504 173.279 697.643 169.992C699.313 168.417 700.969 167.167 701.444 164.954L700.958 164.21C697.171 163.828 692.563 167.276 688.997 168.285C687.678 168.658 684.862 168.915 683.435 169.063C682.677 158.407 685.484 155.928 675.958 148.501C671.619 145.119 665.489 138.846 661.922 134.74Z"/><path fill="#001F3F" d="M722.034 120.114C720.479 118.968 720.209 118.685 719.755 116.919C720.685 110.33 734.442 109.58 733.902 116.794C729.995 118.275 727.49 112.577 723.26 119.143L722.034 120.114Z"/><path fill="#001F3F" d="M683.425 125.29C684.014 125.428 684.509 125.688 685.077 125.933L685.401 126.972C684.68 129.511 676.773 137.667 674.36 140.686C673.163 140.384 673.572 140.5 672.502 139.718C671.122 134.511 679.356 127.772 683.425 125.29Z"/><path fill="#001F3F" d="M708.991 150.427C718.498 149.526 715.249 161.714 711.124 166.315C709.675 166.827 710.041 166.825 708.574 166.911C708.207 164.541 710.779 162.195 710.866 159.804C711.004 156.051 708.306 154.116 708.991 150.427Z"/><path fill="#001F3F" d="M690.132 139.694L692.197 140.139C693.642 141.55 693.205 140.714 693.499 142.761C692.146 147.101 688.519 148.178 684.428 146.966C682.846 145.655 681.532 144.174 681.265 142.064L681.716 141.661C683.822 141.575 685.424 142.357 687.44 143.073C688.482 142.702 689.382 140.841 690.132 139.694Z"/><path fill="#0080FF" d="M680.51 32.1138C705.072 30.5372 722.141 46.5174 735.695 64.8573C724.252 73.4921 712.636 81.8952 700.854 90.0612C693.868 94.6273 682.471 102.219 674.993 105.363C672.989 101.84 671.093 98.2555 669.309 94.6158C658.833 73.1095 654.912 44.4367 680.51 32.1138Z"/><path fill="#0080FF" d="M237.424 566.359C242.916 565.964 277.956 580.81 284.73 584.677C284.996 584.828 296.174 596.901 297.796 598.594C288.696 600.696 279.75 603.417 271.021 606.739C269.15 600.286 265.885 595.312 258.708 594.173C254.9 593.575 251.01 594.525 247.907 596.813C244.425 599.353 242.128 603.201 241.545 607.471C240.778 613.325 243.148 616.892 246.544 621.121C242.352 622.939 238.219 624.891 234.152 626.976C225.985 631.726 220.135 637.255 213.016 643.426C212.84 636.671 212.78 629.899 215.617 623.585C216.566 621.472 220.743 615.366 219.537 613.547C218.687 613.679 218.489 613.59 217.874 614.132C209.784 621.27 209.108 626.613 207.351 635.981C198.327 621.832 199.683 609.674 207.48 595.227C214.473 582.269 225.323 574.186 237.424 566.359Z"/><path fill="#0080FF" d="M973.733 317.363C974.359 317.957 976.727 324.935 977.435 326.525C979.255 330.608 980.674 332.97 983.095 336.736C977 343.15 957.906 354.813 949.794 358.846C912.378 377.449 876.073 386.874 835.048 373.65C832.375 372.651 829.717 371.612 827.075 370.535C828.406 364.577 829.453 360.227 830.252 354.123C847.19 360.469 865.304 363.064 883.342 361.729C917.337 359.222 951.351 343.373 973.733 317.363Z"/><path fill="#0080FF" d="M365.222 941.402C368.754 941.564 372.823 943.793 376.052 945.309C373.03 946.621 369.264 947.9 367.668 950.971C363.791 958.427 374.81 964.319 380.853 961.519C386.226 959.03 388.705 950.279 390.739 945.011C392.043 945.576 395.792 947.125 396.744 947.889C402.452 952.466 406.42 961.823 410.017 949.365C412.701 949.785 415.554 950.371 418.24 950.877C418.083 958.488 418.6 967.061 418.909 974.745L419.101 989.971C397.845 983.704 369.143 975.628 347.803 970.922C351.182 963.74 359.959 946.861 365.222 941.402Z"/><path fill="white" d="M639.391 323.658C653.082 322.029 661.387 325.036 673.175 330.715C677.733 330.294 688.024 327.938 693.346 327.037C694.086 332.884 695.679 339.007 697.123 344.735C692.696 345.207 678.68 346.274 675.393 347.525C662.736 352.345 660.681 355.21 646.321 354.292C636.783 353.492 625.41 353.314 617.722 346.897C616.114 345.555 609.447 335.497 609.701 333.553C610.556 325.929 617.071 325.831 622.25 329.981C627.499 334.187 639.217 335.228 644.085 330.214C644.51 328.646 644.615 329.344 643.956 328.031C641.417 326.911 633.688 330.553 628.638 329.488L628.332 328.766C631.112 325.183 635.214 324.445 639.391 323.658Z"/><path fill="#001F3F" d="M612.646 328.85C617.484 330.122 619.735 334.21 624.686 335.537C626.669 336.068 629.886 336.325 630.881 337.509L630.559 337.983C624.159 341.215 617.095 333.432 614.228 333.191L614.122 334.311C615.752 337.309 618.347 339.358 621.099 341.283C626.588 344.412 628.071 343.872 634.19 344.896C635.754 345.158 635.344 345.056 636.082 346.245L635.695 347.376C629.837 350.149 607.807 340.794 612.646 328.85Z"/><path fill="#0080FF" d="M800.412 155.58C801.144 155.486 800.737 155.468 801.622 155.759C802.452 164.948 781.107 189.574 783.803 196.446C784.231 196.838 785.899 198.349 785.861 198.837C784.112 221.053 780.92 249.409 771.878 269.584C771.08 266.824 770.609 263.936 770.073 261.106C766.888 244.677 767.829 230.288 767.278 213.787C766.88 201.842 764.429 190.945 761.94 179.295C765.195 181.676 767.742 183.927 771.737 183.676C777.656 180.861 788.108 164.59 791.044 158.273L800.412 155.58Z"/><path fill="#033870" d="M290.138 583.66C300.583 584.912 328.015 596.342 336.533 602.673C347.109 610.533 364.066 638.001 366.179 651.251C356.892 648.254 353.701 647.699 346.42 640.637C331.747 626.405 317.391 612.073 303.661 596.912C301.268 594.27 290.832 585.992 290.138 583.66Z"/><path fill="#0080FF" d="M963.185 713.719C970.886 718.941 980.867 722.4 989.444 717.165C993.672 720.459 990.204 726.143 986.723 728.459C966.078 742.193 940.646 746.593 916.526 743.406C913.65 742.763 907.075 741.431 907.686 737.824C910.564 734.401 919.269 732.064 923.575 730.734C925.277 732.482 926.937 733.809 928.803 735.365C931.61 730.197 930.556 728.155 931.627 726.433C933.558 726.645 933.6 727.109 935.448 728.393C938.376 725.381 942.436 722.008 945.651 719.19C946.231 723.405 948.008 731.134 950.616 734.456C952.362 735.31 951.494 735.24 953.299 734.778C957.573 731.025 959.532 720.629 962.798 714.442L963.185 713.719Z"/><path fill="#0080FF" d="M469.176 938.838C470.743 940.204 484.113 961.081 486.044 963.879C468.743 971.199 451.622 978.94 434.698 987.095L430.045 989.033L429.508 968.136C440.869 965.898 435.651 962.426 439.751 958.987C455.294 971.669 455.975 956.648 459.302 944.64C460.251 947.313 460.925 950.221 464.391 949.721C467.418 947.424 468.083 942.611 469.176 938.838Z"/><path fill="#0080FF" d="M731.798 276.653C732.237 276.559 733.579 276.285 733.919 276.412C738.356 278.067 746.299 288.99 748.798 292.546C735.562 296.731 723.127 302.324 709.323 306.239L700.959 307.839L692.577 278.877C707.023 278.911 717.585 279.106 731.798 276.653Z"/><path fill="white" d="M203.161 784.429L203.842 784.654C201.493 787.994 174.006 802.774 169.234 805.124C151.089 814.172 132.658 822.635 113.969 830.5C107.105 833.374 97.9277 837.437 90.9926 839.491C85.6783 841.065 80.1976 842.01 74.6631 842.306C62.0981 842.913 48.6671 839.289 36.8665 835.283C35.2834 834.749 34.3228 834.56 33.03 833.482C32.6003 831.581 33.036 831.57 33.8713 829.346C86.6243 843.681 104.8 826.73 150.595 806.329C167.602 798.753 186.023 792.31 203.161 784.429Z"/><path fill="white" d="M660.916 42.9955L661.321 43.545C649.464 67.7847 658.028 85.0734 670.156 107.38C664.593 109.029 658.987 110.53 653.345 111.881L649.325 112.614C644.028 101.575 638.007 90.5856 639.211 78.0094C640.676 62.7203 649.726 52.435 660.916 42.9955Z"/><path fill="#0080FF" d="M667.05 113.624C667.009 114.1 666.96 114.832 666.765 115.276C660.671 129.152 633.462 170.004 616.553 164.383C615.852 163.095 615.18 161.703 615.226 160.197C615.421 153.775 640.526 123.734 646.198 118.149C654.278 116.428 658.637 116.058 667.05 113.624Z"/><path fill="white" d="M248.277 625.41L248.905 625.401L249.263 626.071C247.408 631.56 246.249 637.26 245.814 643.038C245.08 653.889 247.573 662.613 254.725 670.771C252.573 673.268 250.414 676.21 248.393 678.85C244.454 675.786 240.603 672.611 236.844 669.328C229.935 664.131 222.002 654.391 216.698 647.483C230.23 635.687 230.88 633.699 248.277 625.41Z"/><path fill="white" d="M102.282 928.305C104.385 930.025 104.982 930.966 106.614 933.09C98.8425 949.74 84.7678 960.296 69.8649 970.084C59.8847 976.639 45.3962 986.58 33.053 986.276C31.4978 985.824 29.5815 985.445 28.6663 984.22C29.9801 983 43.9294 973.792 46.5522 971.987C67.3157 957.697 84.926 946.998 102.282 928.305Z"/><path fill="white" d="M91.1824 926.295C93.1679 926.046 94.2358 925.738 96.1212 926.243C94.3399 934.93 38.5187 970.446 28.6996 977.752C27.4166 978.607 27.4891 978.65 26.0052 978.96C24.482 976.816 25.9695 972.47 27.0784 970.368C34.2777 956.715 49.0434 948.054 61.3398 939.748C67.9269 935.321 74.4804 930.844 80.9999 926.317C84.1279 926.51 88.1213 926.73 91.1824 926.295Z"/><path fill="white" d="M234.763 973.074L235.005 973.171C234.464 974.988 229.841 974.912 228.448 978.754L228.921 979.279C233.13 980.195 239.628 977.638 243.557 976.108C252.438 979.69 266.465 984.636 273.157 990.865C265.609 993.476 258.987 993.85 251.125 994.462C232.548 995.007 219.387 994.554 201.298 989.428C201.889 989.126 202.472 988.81 203.049 988.481C208.409 985.404 209.805 983.334 211.298 977.623C222.242 977.529 224.448 977.046 234.763 973.074Z"/><path fill="#0080FF" d="M417.847 916.914C421.946 917.319 454.85 930.13 458.99 932.67C452.568 934.698 446.096 937.578 439.876 940.213L423.991 946.889C410.623 941.829 412.648 938.424 404.094 928.037C408.563 923.884 413.004 920.586 417.847 916.914Z"/><path fill="#033870" d="M187.642 933.718C201.397 941.789 225.654 947.082 241.252 950.139C240.933 953.504 240.584 957.639 239.542 960.822C238.835 962.983 238.77 962.645 237.011 963.536C234.608 964.008 232.691 963.843 230.283 963.442C223.075 962.244 186.842 953.338 183.976 947.574C182.334 944.271 186.265 936.953 187.642 933.718Z"/><path fill="#0080FF" d="M820.162 685.667C830.493 692.503 840.176 695.736 846.326 681.864C847.833 689.373 848.558 697.018 848.492 704.676C833.307 710.612 818.795 708.112 802.922 714.339C801.053 706.841 798.72 699.86 796.78 692.536C798.21 694.167 799.301 695.414 800.582 697.156L801.191 695.388C804.35 695.623 803.543 698.404 809.631 698.233L809.084 700.922C811.059 699.448 812.607 698.251 814.492 696.634C817.281 694.929 818.446 693.861 820.655 691.411C820.51 689.495 820.346 687.58 820.162 685.667Z"/><path fill="#001F3F" d="M800.582 697.156L801.191 695.388C804.35 695.623 803.543 698.404 809.631 698.233L809.084 700.922C808.522 701.701 807.081 702.616 806.23 703.241C803.367 700.783 802.737 700.235 800.582 697.156Z"/><path fill="#0080FF" d="M962.332 653.944C963.727 655.675 966.733 664.098 967.597 666.598C963.692 672.126 957.383 677.391 951.527 680.744C947.635 682.973 934.996 690.273 930.967 689.921L929.728 688.254C926.641 683.783 923.24 679.085 920.564 674.39C936.559 670.258 949.881 665.618 962.332 653.944Z"/><path fill="#0080FF" d="M804.959 644.795C821.123 648.797 833.413 649.061 849.562 645.886C848.617 650.978 847.76 656.02 846.401 661.021C842.472 665.044 815.467 667.349 809.778 664.484C807.366 663.269 805.442 647.845 804.959 644.795Z"/><path fill="white" d="M160.39 697.287C160.68 697.55 161.136 698.079 161.129 698.464C160.699 721.438 167.803 742.789 178.942 762.647C181.988 768.078 186.026 775.871 191.495 779.279C194.632 778.32 197.659 776.481 200.793 775.437C201.75 775.118 202.715 776.161 203.678 776.864L203.786 777.575C202.329 778.988 199.577 779.972 197.629 780.824C193.23 783.084 187.424 785.261 182.795 786.967C174.39 761.732 145.797 723.178 160.39 697.287Z"/><path fill="#0080FF" d="M700.271 25.7072C715.29 24.2886 730.242 31.0923 739.687 42.714C742.849 46.6054 745.681 50.8609 748.528 54.9926C745.335 57.2385 742.571 59.5298 739.548 62.0013C728.391 44.1541 710.687 29.4474 689.091 27.6796C693.649 26.4536 695.587 26.1557 700.271 25.7072Z"/><path fill="#033870" d="M193.004 916.759C196.092 918.49 198.755 920.603 201.808 922.314C216.214 930.387 227.523 935.353 243.978 932.895C243.382 936.155 243.401 941.565 242.31 944.335L241.376 944.607C220.763 939.669 208.158 939.168 188.764 927.358C189.11 922.857 188.74 919.235 193.004 916.759Z"/><path fill="#0080FF" d="M762.118 244.811C762.915 247.188 763.541 256.506 763.975 259.73C764.97 267.135 766.008 272.011 768.006 279.124C765.015 282.031 764.787 282.949 763.633 286.921C759.506 288.078 757.504 288.987 753.556 290.781C749.686 283.284 748.467 281.932 742.677 275.591C741.67 274.693 740.939 273.802 740.059 272.791L740.725 271.297C746.552 271.228 756.826 278.652 759.665 275.831L759.464 274.538C756.385 270.775 751.674 268.82 747.322 266.55C752.558 259.919 757.576 251.937 762.118 244.811Z"/><path fill="#0080FF" d="M425.546 904.254C438.249 908.365 450.997 912.336 463.787 916.165C468.971 917.73 478.988 920.429 483.708 922.418C481.146 923.447 469.705 927.882 467.893 929.052L466.856 928.728C458.762 923.131 421.424 913.305 418.731 910.128C420.637 907.84 423.276 906.206 425.546 904.254Z"/><path fill="white" d="M964.832 677.942C966.178 679.698 969.258 687.29 970.134 689.887C973.743 700.591 983.687 709.452 965.759 708.403C964.071 706.921 962.22 704.998 960.594 703.398C957.546 701.083 956.329 701.486 952.527 701.55C949.854 698.732 946.362 694.048 943.925 690.926C952.986 686.677 957.036 684.245 964.832 677.942Z"/><path fill="#033870" d="M957.779 360.979L958.346 361.738C956.283 374.834 941.529 393.567 927.439 385.133C925.316 381.909 925.02 379.227 924.339 375.503C936.419 372.117 946.706 366.654 957.779 360.979Z"/><path fill="white" d="M740.388 153.34C741.924 154.252 743.083 155.115 744.553 156.074C758.652 165.275 769.046 162.93 784.354 159.963C782.365 163.226 779.65 166.97 777.456 170.166C775.139 173.361 773.42 175.879 770.652 178.68C763.09 175.095 740.923 161.513 740.388 153.34Z"/><path fill="white" d="M197.401 993.409C214.747 1000.65 255.676 1002.23 273.516 996.16L273.872 996.674C273.248 998.593 273.249 998.498 271.913 1000.05C254.734 1005.19 230.208 1006.28 212.363 1003.4C208.023 1002.7 199.763 1000.07 195.336 998.743L197.401 993.409Z"/><path fill="white" d="M183.608 954.565C196.101 960.114 208.477 964.48 221.917 966.966C223.941 967.341 227.438 968.156 229.07 969.359L228.947 970.11L227.084 970.839C222.273 971.898 217.369 972.476 212.444 972.563C199.963 972.729 190.551 970.188 181.524 961.334C181.992 959.192 182.906 956.682 183.608 954.565Z"/><path fill="#0080FF" d="M707.419 316.623C708.218 317.524 710.18 327.254 710.7 329.456C712.444 336.854 714.776 343.512 717.392 350.62L708.111 351.9C707.157 351.918 707.658 352.014 706.644 351.465C702.312 343.756 699.566 328.117 698.259 319.345L707.419 316.623Z"/><path fill="white" d="M180.126 967.245C190.558 973.734 189.179 977.523 194.574 988.702C191.97 992.049 191.344 993.953 190.296 997.873C184.594 995.711 176.231 993.445 176.139 986.476C176.065 980.83 178.626 972.759 180.126 967.245Z"/><path fill="white" d="M839.843 669.187C840.576 669.778 841.924 675.725 842.369 677.316C841.923 678.707 841.184 681.16 840.478 682.357C839.358 684.23 837.472 685.517 835.319 685.876C830.939 686.6 826.262 683.208 822.954 680.736C819.786 677.63 816.57 674.195 813.468 670.993C823.846 670.997 829.583 671.165 839.843 669.187Z"/><path fill="#0080FF" d="M383.344 899.212L384.46 899.353C397.901 917.862 407.598 908.93 412.538 912.73C411.531 915.891 404.109 919.638 401.422 922.662C395.933 928.842 392.489 935.349 386.53 941.262C398.975 916.678 394.023 922.102 383.642 899.856L383.344 899.212Z"/><path fill="white" d="M109.832 938.416C109.974 938.599 110.117 938.782 110.26 938.964C113.921 948.557 112.654 955.544 108.695 964.03C103.909 963.841 99.1256 963.595 94.3454 963.292C92.3019 963.166 91.4662 963.071 89.4631 962.673C101.268 952.523 101.214 951.994 109.832 938.416Z"/><path fill="white" d="M993.81 727.892C1002.34 736.829 951.863 751.915 945.617 752.41C934.51 753.289 915.518 756.602 905.847 749.708C905.266 748.165 905.17 748.12 905.106 746.412C905.343 746.309 905.579 746.205 905.815 746.101C909.395 747.771 913.532 748.963 917.291 749.59C926.86 751.187 937.131 751.035 946.633 749.457C961.091 747.057 984.846 740.38 993.81 727.892Z"/><path fill="white" d="M211.225 649.72C212.892 650.841 218.116 657.459 219.769 659.314C227.035 667.47 237.629 678.876 247.298 683.739C245.495 686.415 243.87 688.191 241.739 690.606L238.893 693.739C233.015 681.502 227.272 671.448 218.4 661.075C216.904 659.325 209.322 652.444 209.281 651.348L211.225 649.72Z"/><path fill="#0080FF" d="M453.095 940.511C454.01 941.356 451.696 954.095 449.461 956.36C443.156 958.783 437.895 947.283 434.002 959.362C433.66 960.42 433.95 959.932 433.059 960.78C431.984 959.332 430.617 952.631 430.096 950.493C435.57 947.358 446.71 943.241 453.095 940.511Z"/><path fill="white" d="M358.236 860.059C363.376 862.655 369.468 865.028 374.271 867.877C376.703 869.32 378.159 880.487 378.709 883.294C379.884 889.291 381.776 893.929 384.46 899.353L383.344 899.212C379.264 892.934 375.841 886.652 371.934 880.322C367.724 873.502 362.868 866.623 358.236 860.059Z"/><path fill="#0080FF" d="M848.532 710.203C849.107 710.832 848.863 714.661 848.866 715.891C837.181 721.155 823.694 719.178 811 718.351C810.1 718.08 810.261 718.105 809.436 717.616C812.938 715.33 838.803 714.186 848.532 710.203Z"/><path fill="#0080FF" d="M978.829 696.202C979.718 696.442 980.759 696.69 981.377 697.386C984.153 700.511 988.566 711.545 988.829 715.035C985.085 714.325 984.457 714.511 980.625 714.971C974.902 715.184 973.752 714.82 968.395 712.86C981.55 712.126 982.988 707.818 978.829 696.202Z"/><path fill="white" d="M356.65 920.609C360.198 923.105 364.73 923.82 367.675 926.656C371.523 930.362 364.273 934.336 361.463 935.425C359.779 935.286 360.229 935.241 358.645 933.915C358.275 928.665 362.068 928.037 362.138 925.145L360.262 923.576C357.851 924.37 357.417 928.576 355.348 929.334C353.881 925.51 354.963 924.468 356.65 920.609Z"/><path fill="#0080FF" d="M958.41 709.979L958.777 710.349C959.115 712.507 954.281 725.659 952.452 727.184L951.926 726.389C951.211 723.167 949.92 719.024 949.002 715.774C952.399 713.131 954.467 711.623 958.41 709.979Z"/><path fill="#0080FF" d="M400.936 932.936C403.052 935.603 407.649 940.605 407.756 943.749C406.423 944.849 406.318 944.433 404.034 944.413C401.014 942.95 397.942 941.748 394.834 940.487C396.703 937.949 398.911 935.382 400.936 932.936Z"/><path fill="white" d="M609.794 340.828C612.037 342.576 614.437 348.027 618.079 350.552C621.255 352.754 628.606 354.229 630.17 355.917C618.542 359.176 611.138 352.149 609.794 340.828Z"/><path fill="#001F3F" d="M812.018 687.98L812.764 687.842L814.127 688.868C815.398 687.854 815.879 687.406 817.369 686.665L818.3 686.965L818.523 687.769C818.002 687.833 817.481 687.897 816.96 687.961L816.093 689.084C816.721 690.499 816.384 689.855 817.927 690.927C817.119 692.245 817.563 691.647 815.944 692.501C812.908 691.922 814.29 690.469 812.471 690.97L812.095 691.682C813.377 693.307 814.456 694.088 814.625 695.877L814.492 696.634C812.607 698.251 811.059 699.448 809.084 700.922L809.631 698.233C809.677 697.96 809.724 697.688 809.771 697.415L810.264 696.212C810.281 694.375 809.096 692.724 808.168 691.058C808.601 690.436 808.29 690.774 809.26 690.22L810.898 690.983L811.949 690.347C812.376 689.005 812.246 689.52 812.018 687.98Z"/><path fill="#033870" d="M814.625 695.877C812.85 694.57 811.459 694 812.095 691.682C813.377 693.307 814.456 694.088 814.625 695.877Z"/><path fill="white" d="M194.391 975.293C197.334 975.949 202.54 975.876 204.178 978.297C204.325 979.977 203.444 980.877 202.492 982.349L198.835 985.635C197.181 982.052 195.779 978.978 194.391 975.293Z"/><path fill="#0080FF" d="M382.093 947.975L382.493 948.448C382.287 954.4 379.199 956.003 373.805 956.124L373.127 954.712C373.59 952.559 379.641 950.17 382.093 947.975Z"/><path fill="#0080FF" d="M809.771 697.415C807.679 692.431 800.896 689.303 800.962 685.536L801.864 685.012C803.868 685.515 806.727 689.348 808.168 691.058C809.096 692.724 810.281 694.375 810.264 696.212L809.771 697.415Z"/><path fill="#0660BA" d="M943.497 698.493C945.924 700.857 951.062 705.032 951.708 707.649C950.645 707.798 950.996 707.78 949.928 707.614C947.46 705.122 944.796 701.768 943.497 698.493Z"/><path fill="#0660BA" d="M939.879 699.401C941.914 700.655 946.002 707.893 947.316 710.289C943.727 709.61 941.055 702.635 939.879 699.401Z"/><path fill="#0660BA" d="M936.784 702.306C939.44 703.261 942.164 709.132 943.632 711.735C941.162 710.988 937.735 704.731 936.784 702.306Z"/><path fill="#033870" d="M805.789 681.248C807.705 683.442 809.701 686.489 812.018 687.98C812.246 689.52 812.376 689.005 811.949 690.347C808.408 687.083 807.762 685.492 805.789 681.248Z"/><path fill="#033870" d="M812.806 684.824C810.986 684.141 808.926 680.497 808.16 678.766L808.669 677.463C810.146 679.796 811.902 682.259 812.806 684.824Z"/></svg>
